<svg xmlns="http://www.w3.org/2000/svg" xmlns:xlink="http://www.w3.org/1999/xlink" width="500" zoomAndPan="magnify" viewBox="0 0 375 374.999991" height="500" preserveAspectRatio="xMidYMid meet" version="1.0"><defs><g/><clipPath id="8b4a5ed4b2"><path d="M 187 126 L 291.238281 126 L 291.238281 229.921875 L 187 229.921875 Z M 187 126 " clip-rule="nonzero"/></clipPath><clipPath id="61cd788e17"><path d="M 83.488281 73.921875 L 188 73.921875 L 188 178 L 83.488281 178 Z M 83.488281 73.921875 " clip-rule="nonzero"/></clipPath><clipPath id="2161ee9401"><path d="M 187 73.921875 L 257 73.921875 L 257 144 L 187 144 Z M 187 73.921875 " clip-rule="nonzero"/></clipPath><clipPath id="e539795d01"><path d="M 118 160 L 188 160 L 188 229.921875 L 118 229.921875 Z M 118 160 " clip-rule="nonzero"/></clipPath></defs><g clip-path="url(#8b4a5ed4b2)"><path fill="#ff6d06" d="M 291.398438 152.066406 L 213.265625 230.195312 L 187.503906 204.4375 L 222.445312 169.5 L 239.878906 152.066406 L 265.644531 126.3125 Z M 291.398438 152.066406 " fill-opacity="1" fill-rule="nonzero"/></g><g clip-path="url(#61cd788e17)"><path fill="#ff6d06" d="M 83.609375 152.058594 L 161.746094 73.929688 L 187.503906 99.691406 L 152.5625 134.628906 L 135.128906 152.058594 L 109.367188 177.8125 Z M 83.609375 152.058594 " fill-opacity="1" fill-rule="nonzero"/></g><path fill="#ff3203" d="M 160.875 152.066406 L 187.503906 125.4375 L 214.132812 152.0625 L 187.503906 178.691406 Z M 160.875 152.066406 " fill-opacity="1" fill-rule="nonzero"/><g clip-path="url(#2161ee9401)"><path fill="#ff3203" d="M 256.808594 117.476562 L 231.046875 143.238281 L 187.503906 99.6875 L 213.265625 73.921875 Z M 256.808594 117.476562 " fill-opacity="1" fill-rule="nonzero"/></g><g clip-path="url(#e539795d01)"><path fill="#ff3203" d="M 118.203125 186.652344 L 143.960938 160.890625 L 187.503906 204.441406 L 161.746094 230.203125 Z M 118.203125 186.652344 " fill-opacity="1" fill-rule="nonzero"/></g><g fill="#fdfdfd" fill-opacity="1"><g transform="translate(69.344542, 261.569676)"><g><path d="M 16.875 -12 L 4.875 -12 L 4.875 -9.703125 L 16.875 -9.703125 L 16.875 -6 L 4.875 -6 L 4.875 -3.703125 L 16.875 -3.703125 L 16.875 0 L 1.171875 0 L 1.171875 -15.703125 L 16.875 -15.703125 Z M 16.875 -12 "/></g></g></g><g fill="#fdfdfd" fill-opacity="1"><g transform="translate(106.591408, 261.569676)"><g><path d="M 22.875 -15.703125 L 22.875 0 L 19.171875 0 L 19.171875 -12 L 13.875 -11.984375 L 13.875 0 L 10.171875 0 L 10.171875 -11.984375 L 4.875 -12 L 4.875 0 L 1.171875 0 L 1.171875 -15.703125 Z M 22.875 -15.703125 "/></g></g></g><g fill="#fdfdfd" fill-opacity="1"><g transform="translate(149.838274, 261.569676)"><g><path d="M 16.875 -12 L 4.875 -12 L 4.875 -9.703125 L 16.875 -9.703125 L 16.875 -6 L 4.875 -6 L 4.875 -3.703125 L 16.875 -3.703125 L 16.875 0 L 1.171875 0 L 1.171875 -15.703125 L 16.875 -15.703125 Z M 16.875 -12 "/></g></g></g><g fill="#fdfdfd" fill-opacity="1"><g transform="translate(187.085139, 261.569676)"><g><path d="M 1.171875 -15.703125 L 16.875 -15.703125 L 16.875 -3 L 13.859375 -3 L 16.828125 0 L 12.328125 0 L 9.40625 -3 L 4.875 -3 L 4.875 0 L 1.171875 0 Z M 4.875 -6.703125 L 13.171875 -6.703125 L 13.171875 -12 L 4.875 -12 Z M 4.875 -6.703125 "/></g></g></g><g fill="#fdfdfd" fill-opacity="1"><g transform="translate(224.332005, 261.569676)"><g><path d="M 4.875 -15.703125 L 4.875 0 L 1.171875 0 L 1.171875 -15.703125 Z M 4.875 -15.703125 "/></g></g></g><g fill="#fdfdfd" fill-opacity="1"><g transform="translate(249.578872, 261.569676)"><g><path d="M 1.171875 -15.703125 L 16.875 -15.703125 L 16.875 -12 L 4.875 -12 L 4.875 -3.703125 L 16.875 -3.703125 L 16.875 0 L 1.171875 0 Z M 1.171875 -15.703125 "/></g></g></g><g fill="#fdfdfd" fill-opacity="1"><g transform="translate(286.825738, 261.569676)"><g><path d="M 17.65625 0 L 13.4375 0 L 9.78125 -6 L 4.875 -6 L 4.875 0 L 1.171875 0 L 1.171875 -15.703125 L 4.875 -15.703125 L 4.875 -9.703125 L 9.796875 -9.703125 L 13.40625 -15.703125 L 17.53125 -15.703125 L 13.15625 -7.671875 Z M 17.65625 0 "/></g></g></g><g fill="#fdfdfd" fill-opacity="1"><g transform="translate(129.367606, 317.069686)"><g><path d="M 10.359375 -7.875 L 27.984375 -7.875 L 27.984375 -25.5 L 2.484375 -25.5 L 2.484375 -33.375 L 35.859375 -33.375 L 35.859375 0 L 2.484375 0 L 2.484375 -20.625 L 10.359375 -20.625 Z M 10.359375 -7.875 "/></g></g><g transform="translate(167.717213, 317.069686)"><g><path d="M 35.859375 -25.5 L 10.359375 -25.5 L 10.359375 -20.625 L 35.859375 -20.625 L 35.859375 -12.75 L 10.359375 -12.75 L 10.359375 -7.875 L 35.859375 -7.875 L 35.859375 0 L 2.484375 0 L 2.484375 -33.375 L 35.859375 -33.375 Z M 35.859375 -25.5 "/></g></g><g transform="translate(206.06682, 317.069686)"><g><path d="M 37.0625 -33.375 L 31.671875 0 L 7.875 0 L 2.484375 -33.375 L 11 -33.375 L 15.09375 -7.875 L 24.453125 -7.875 L 28.53125 -33.375 Z M 37.0625 -33.375 "/></g></g></g></svg>